<svg xmlns="http://www.w3.org/2000/svg" xmlns:xlink="http://www.w3.org/1999/xlink" width="100" zoomAndPan="magnify" viewBox="0 0 75 74.999997" height="100" preserveAspectRatio="xMidYMid meet" version="1.0"><defs><filter x="0%" y="0%" width="100%" height="100%" id="4ccaccd5c6"><feColorMatrix values="0 0 0 0 1 0 0 0 0 1 0 0 0 0 1 0 0 0 1 0" color-interpolation-filters="sRGB"/></filter><mask id="06690e55fa"><g filter="url(#4ccaccd5c6)"><rect x="-7.5" width="90" fill="#000000" y="-7.5" height="89.999996" fill-opacity="0.8"/></g></mask><clipPath id="d8365bcd25"><path d="M 32.058594 0.542969 L 60.492188 0.542969 L 60.492188 28.890625 L 32.058594 28.890625 Z M 32.058594 0.542969 " clip-rule="nonzero"/></clipPath><clipPath id="048eb794c5"><path d="M 0.507812 0.542969 L 28.941406 0.542969 L 28.941406 28.890625 L 0.507812 28.890625 Z M 0.507812 0.542969 " clip-rule="nonzero"/></clipPath><clipPath id="0aa2b19959"><rect x="0" width="61" y="0" height="30"/></clipPath><clipPath id="9cd978a7f0"><path d="M 22.5 19.613281 L 52.5 19.613281 L 52.5 25.613281 L 22.5 25.613281 Z M 22.5 19.613281 " clip-rule="nonzero"/></clipPath></defs><g mask="url(#06690e55fa)"><g transform="matrix(1, 0, 0, 1, 7, 27)"><g clip-path="url(#0aa2b19959)"><g clip-path="url(#d8365bcd25)"><path fill="#ffffff" d="M 46.316406 27.789062 C 39.109375 27.789062 33.246094 21.925781 33.246094 14.714844 C 33.246094 7.507812 39.109375 1.644531 46.316406 1.644531 C 53.527344 1.644531 59.390625 7.507812 59.390625 14.714844 C 59.390625 21.925781 53.527344 27.789062 46.316406 27.789062 Z M 46.316406 0.542969 C 38.503906 0.542969 32.144531 6.902344 32.144531 14.714844 C 32.144531 22.53125 38.503906 28.890625 46.316406 28.890625 C 54.132812 28.890625 60.492188 22.53125 60.492188 14.714844 C 60.492188 6.902344 54.132812 0.542969 46.316406 0.542969 " fill-opacity="1" fill-rule="nonzero"/></g><path fill="#ffffff" d="M 49.5 9.511719 L 40.316406 9.511719 C 39.515625 9.511719 38.867188 10.160156 38.867188 10.960938 L 38.867188 18.472656 C 38.867188 19.273438 39.515625 19.921875 40.316406 19.921875 L 49.5 19.921875 C 50.300781 19.921875 50.949219 19.273438 50.949219 18.472656 L 50.949219 10.960938 C 50.949219 10.160156 50.300781 9.511719 49.5 9.511719 " fill-opacity="1" fill-rule="nonzero"/><path fill="#ffffff" d="M 52.714844 12.179688 L 51.605469 12.820312 L 51.605469 16.613281 L 52.714844 17.253906 C 53.183594 17.523438 53.769531 17.1875 53.769531 16.648438 L 53.769531 12.785156 C 53.769531 12.246094 53.183594 11.90625 52.714844 12.179688 " fill-opacity="1" fill-rule="nonzero"/><g clip-path="url(#048eb794c5)"><path fill="#ffffff" d="M 14.679688 27.789062 C 7.472656 27.789062 1.609375 21.925781 1.609375 14.714844 C 1.609375 7.507812 7.472656 1.644531 14.679688 1.644531 C 21.890625 1.644531 27.753906 7.507812 27.753906 14.714844 C 27.753906 21.925781 21.890625 27.789062 14.679688 27.789062 Z M 14.679688 0.542969 C 6.867188 0.542969 0.507812 6.902344 0.507812 14.714844 C 0.507812 22.53125 6.867188 28.890625 14.679688 28.890625 C 22.496094 28.890625 28.855469 22.53125 28.855469 14.714844 C 28.855469 6.902344 22.496094 0.542969 14.679688 0.542969 " fill-opacity="1" fill-rule="nonzero"/></g><path fill="#ffffff" d="M 14.683594 18.453125 C 16.617188 18.453125 18.1875 16.882812 18.1875 14.945312 L 18.1875 8.695312 C 18.1875 6.757812 16.617188 5.1875 14.683594 5.1875 C 12.746094 5.1875 11.175781 6.757812 11.175781 8.695312 L 11.175781 14.945312 C 11.175781 16.882812 12.746094 18.453125 14.683594 18.453125 " fill-opacity="1" fill-rule="nonzero"/><path fill="#ffffff" d="M 19.558594 11.496094 C 19.179688 11.496094 18.875 11.800781 18.875 12.183594 L 18.875 14.945312 C 18.875 17.257812 16.992188 19.136719 14.679688 19.136719 C 12.371094 19.136719 10.488281 17.257812 10.488281 14.945312 L 10.488281 12.183594 C 10.488281 11.800781 10.183594 11.496094 9.804688 11.496094 C 9.425781 11.496094 9.117188 11.800781 9.117188 12.183594 L 9.117188 14.945312 C 9.117188 17.777344 11.253906 20.097656 13.996094 20.4375 L 13.996094 22.875 L 13.007812 22.875 C 12.628906 22.875 12.324219 23.179688 12.324219 23.558594 C 12.324219 23.9375 12.628906 24.246094 13.007812 24.246094 L 16.351562 24.246094 C 16.730469 24.246094 17.039062 23.9375 17.039062 23.558594 C 17.039062 23.179688 16.730469 22.875 16.351562 22.875 L 15.367188 22.875 L 15.367188 20.4375 C 18.109375 20.097656 20.246094 17.777344 20.246094 14.945312 L 20.246094 12.183594 C 20.246094 11.800781 19.9375 11.496094 19.558594 11.496094 " fill-opacity="1" fill-rule="nonzero"/></g></g></g><g clip-path="url(#9cd978a7f0)"><path fill="#ffffff" d="M 26.140625 22.007812 C 26.1875 22.011719 26.238281 21.996094 26.277344 21.964844 C 26.3125 21.933594 26.335938 21.886719 26.339844 21.835938 C 26.34375 21.789062 26.328125 21.738281 26.296875 21.703125 C 26.265625 21.664062 26.21875 21.640625 26.167969 21.636719 C 26.164062 21.636719 26.160156 21.636719 26.152344 21.636719 C 26.109375 21.636719 26.066406 21.652344 26.03125 21.679688 C 25.953125 21.746094 25.945312 21.867188 26.011719 21.945312 C 26.042969 21.980469 26.089844 22.003906 26.140625 22.007812 Z M 28.199219 20.082031 C 28.164062 20.046875 28.121094 20.023438 28.070312 20.019531 C 28.066406 20.019531 28.058594 20.015625 28.054688 20.015625 C 28.011719 20.015625 27.96875 20.03125 27.933594 20.0625 C 27.894531 20.09375 27.871094 20.140625 27.867188 20.191406 C 27.863281 20.238281 27.878906 20.289062 27.910156 20.328125 C 27.945312 20.363281 27.988281 20.386719 28.039062 20.390625 C 28.089844 20.394531 28.136719 20.378906 28.175781 20.347656 C 28.253906 20.28125 28.265625 20.160156 28.199219 20.082031 Z M 30.253906 20.878906 C 31.148438 21.933594 31.019531 23.515625 29.96875 24.410156 C 29.5 24.8125 28.921875 25.007812 28.347656 25.007812 C 27.636719 25.007812 26.933594 24.707031 26.4375 24.128906 C 26.007812 23.625 25.800781 22.972656 25.847656 22.320312 C 25.796875 22.285156 25.75 22.246094 25.710938 22.199219 C 25.503906 21.957031 25.53125 21.585938 25.777344 21.378906 C 26.019531 21.171875 26.390625 21.199219 26.597656 21.445312 C 26.699219 21.5625 26.746094 21.714844 26.734375 21.871094 C 26.722656 22.023438 26.648438 22.164062 26.53125 22.265625 C 26.445312 22.339844 26.347656 22.382812 26.238281 22.398438 C 26.210938 22.933594 26.390625 23.460938 26.738281 23.871094 C 27.492188 24.757812 28.828125 24.863281 29.710938 24.109375 C 30.597656 23.355469 30.707031 22.023438 29.953125 21.136719 C 29.605469 20.730469 29.121094 20.472656 28.597656 20.410156 C 28.566406 20.5 28.511719 20.582031 28.433594 20.648438 C 28.324219 20.738281 28.195312 20.789062 28.054688 20.789062 C 28.039062 20.789062 28.023438 20.785156 28.007812 20.785156 C 27.851562 20.773438 27.710938 20.699219 27.609375 20.582031 C 27.511719 20.464844 27.460938 20.3125 27.472656 20.15625 C 27.488281 20.003906 27.558594 19.863281 27.675781 19.761719 C 27.796875 19.660156 27.945312 19.613281 28.101562 19.625 C 28.257812 19.636719 28.398438 19.707031 28.5 19.828125 C 28.546875 19.882812 28.582031 19.949219 28.605469 20.015625 C 29.242188 20.082031 29.832031 20.386719 30.253906 20.878906 Z M 48.746094 23.867188 C 48.746094 23.816406 48.726562 23.773438 48.6875 23.738281 C 48.652344 23.703125 48.609375 23.683594 48.558594 23.683594 C 48.558594 23.683594 48.554688 23.683594 48.554688 23.683594 C 48.453125 23.6875 48.371094 23.773438 48.371094 23.875 C 48.371094 23.925781 48.394531 23.972656 48.429688 24.007812 C 48.464844 24.042969 48.511719 24.0625 48.5625 24.058594 C 48.667969 24.058594 48.75 23.972656 48.746094 23.867188 Z M 48.3125 21.382812 C 48.316406 21.429688 48.335938 21.476562 48.371094 21.511719 C 48.40625 21.546875 48.457031 21.566406 48.503906 21.5625 C 48.554688 21.5625 48.601562 21.542969 48.636719 21.507812 C 48.671875 21.46875 48.691406 21.421875 48.6875 21.371094 C 48.6875 21.269531 48.601562 21.191406 48.5 21.191406 C 48.5 21.191406 48.5 21.191406 48.496094 21.191406 C 48.394531 21.191406 48.3125 21.277344 48.3125 21.382812 Z M 48.960938 23.449219 C 49.074219 23.558594 49.136719 23.703125 49.140625 23.859375 C 49.148438 24.179688 48.894531 24.449219 48.574219 24.453125 C 48.566406 24.453125 48.5625 24.453125 48.558594 24.453125 C 48.492188 24.453125 48.421875 24.441406 48.359375 24.417969 C 47.90625 24.871094 47.296875 25.136719 46.648438 25.152344 C 46.628906 25.152344 46.609375 25.152344 46.589844 25.152344 C 45.234375 25.152344 44.117188 24.066406 44.085938 22.707031 C 44.054688 21.324219 45.152344 20.175781 46.53125 20.144531 C 47.195312 20.128906 47.832031 20.378906 48.308594 20.828125 C 48.363281 20.808594 48.425781 20.796875 48.488281 20.792969 C 48.808594 20.789062 49.078125 21.042969 49.082031 21.363281 C 49.085938 21.519531 49.03125 21.667969 48.921875 21.78125 C 48.816406 21.890625 48.671875 21.957031 48.515625 21.960938 C 48.511719 21.960938 48.503906 21.960938 48.5 21.960938 C 48.351562 21.960938 48.207031 21.902344 48.097656 21.796875 C 47.988281 21.691406 47.921875 21.546875 47.917969 21.390625 C 47.917969 21.277344 47.945312 21.171875 48 21.082031 C 47.601562 20.722656 47.082031 20.527344 46.542969 20.539062 C 45.378906 20.566406 44.457031 21.535156 44.480469 22.699219 C 44.507812 23.84375 45.449219 24.757812 46.589844 24.757812 C 46.605469 24.757812 46.621094 24.757812 46.640625 24.757812 C 47.171875 24.746094 47.675781 24.53125 48.054688 24.164062 C 48.007812 24.082031 47.980469 23.984375 47.976562 23.886719 C 47.96875 23.566406 48.222656 23.296875 48.546875 23.289062 C 48.703125 23.285156 48.847656 23.34375 48.960938 23.449219 Z M 25.828125 24.808594 C 25.832031 24.757812 25.816406 24.710938 25.785156 24.671875 C 25.746094 24.628906 25.695312 24.605469 25.640625 24.605469 C 25.597656 24.605469 25.554688 24.621094 25.519531 24.652344 C 25.441406 24.71875 25.433594 24.835938 25.5 24.914062 C 25.53125 24.953125 25.578125 24.976562 25.628906 24.980469 C 25.675781 24.984375 25.726562 24.96875 25.765625 24.9375 C 25.800781 24.902344 25.824219 24.859375 25.828125 24.808594 Z M 27.542969 22.988281 C 27.5 22.988281 27.457031 23.003906 27.421875 23.035156 C 27.382812 23.066406 27.359375 23.109375 27.355469 23.160156 C 27.351562 23.210938 27.367188 23.257812 27.398438 23.296875 C 27.46875 23.375 27.585938 23.386719 27.664062 23.320312 L 27.664062 23.316406 C 27.742188 23.25 27.753906 23.132812 27.6875 23.054688 C 27.652344 23.015625 27.609375 22.992188 27.558594 22.988281 C 27.554688 22.988281 27.546875 22.988281 27.542969 22.988281 Z M 26.085938 24.414062 C 26.1875 24.535156 26.234375 24.683594 26.222656 24.839844 C 26.210938 24.996094 26.136719 25.136719 26.019531 25.238281 C 25.914062 25.328125 25.78125 25.375 25.644531 25.375 C 25.628906 25.375 25.613281 25.375 25.59375 25.375 C 25.441406 25.363281 25.300781 25.289062 25.199219 25.171875 C 25.148438 25.113281 25.117188 25.050781 25.09375 24.984375 C 24.453125 24.917969 23.863281 24.609375 23.445312 24.117188 C 22.550781 23.066406 22.675781 21.480469 23.726562 20.585938 C 24.78125 19.691406 26.363281 19.820312 27.257812 20.871094 C 27.6875 21.375 27.898438 22.023438 27.847656 22.679688 C 27.898438 22.710938 27.945312 22.75 27.988281 22.796875 C 28.195312 23.042969 28.164062 23.410156 27.921875 23.621094 C 27.8125 23.710938 27.675781 23.757812 27.542969 23.757812 C 27.378906 23.757812 27.214844 23.6875 27.097656 23.554688 C 27 23.433594 26.949219 23.285156 26.960938 23.128906 C 26.976562 22.972656 27.046875 22.832031 27.164062 22.730469 C 27.25 22.660156 27.351562 22.617188 27.457031 22.601562 C 27.484375 22.066406 27.308594 21.539062 26.957031 21.128906 C 26.203125 20.242188 24.871094 20.132812 23.984375 20.886719 C 23.097656 21.640625 22.992188 22.976562 23.746094 23.863281 C 24.089844 24.265625 24.574219 24.523438 25.097656 24.589844 C 25.132812 24.5 25.1875 24.417969 25.265625 24.351562 C 25.507812 24.140625 25.878906 24.171875 26.085938 24.414062 Z M 48.777344 20.148438 L 48.777344 20.644531 L 50.347656 20.644531 L 50.347656 24.925781 L 50.878906 24.925781 L 50.878906 20.644531 L 52.449219 20.644531 L 52.449219 20.148438 Z M 41.300781 22.761719 L 43.851562 22.761719 L 43.851562 22.269531 L 41.300781 22.269531 L 41.300781 20.636719 L 44.152344 20.636719 L 44.152344 20.148438 L 40.769531 20.148438 L 40.769531 24.925781 L 44.1875 24.925781 L 44.1875 24.433594 L 41.300781 24.433594 Z M 39.46875 23.976562 L 36.519531 20.148438 L 36.023438 20.148438 L 36.023438 24.925781 L 36.539062 24.925781 L 36.539062 21.007812 L 39.5625 24.925781 L 39.980469 24.925781 L 39.980469 20.148438 L 39.46875 20.148438 Z M 34.722656 20.148438 L 35.238281 20.148438 L 35.238281 24.925781 L 34.816406 24.925781 L 31.792969 21.007812 L 31.792969 24.925781 L 31.28125 24.925781 L 31.28125 20.148438 L 31.773438 20.148438 L 34.722656 23.976562 L 34.722656 20.148438 " fill-opacity="1" fill-rule="nonzero"/></g></svg>